<svg height="62" viewBox="0 0 1124 62" width="1124" xmlns="http://www.w3.org/2000/svg" xmlns:xlink="http://www.w3.org/1999/xlink"><filter id="a" color-interpolation-filters="auto"><feColorMatrix in="SourceGraphic" type="matrix" values="0 0 0 0 1.000000 0 0 0 0 1.000000 0 0 0 0 1.000000 0 0 0 1.000000 0"/></filter><linearGradient id="b" x1="50%" x2="50%" y1="12.289221%" y2="100%"><stop offset="0" stop-color="#fff" stop-opacity=".197066"/><stop offset="1" stop-color="#fff" stop-opacity=".9"/></linearGradient><filter id="c" color-interpolation-filters="auto"><feColorMatrix in="SourceGraphic" type="matrix" values="0 0 0 0 1.000000 0 0 0 0 1.000000 0 0 0 0 1.000000 0 0 0 0.500000 0"/></filter><g fill="none" fill-rule="evenodd"><g filter="url(#a)" transform="translate(0 37)"><path d="m0 25v-25c2.1 0 4.59113257.02588136 7.43738231.07675334l2.96328819.0591692 3.1920296.07563168 3.4127675.09189621 3.6255021.1079628 3.8302331.12383145 4.0269608.13950216 4.2156851.15497493 4.3964059.17024975 4.5691232.18532664 4.7338373.20020559 4.8905479.21488658 5.0392549.22936965 5.1799587.24365477 5.312659.25774195 5.4373559.27163119 8.3723329.4330561 5.7140831.30548829 5.810768.31868473 5.8994495.33168323 5.980127.34448379 6.052803.35708641 6.117473.36949109 6.174141.38169783c1.033301.06462253 2.06863.12974544 3.10582.19536458l6.244136.39963679 6.280796.41134868 6.309452.42286262 6.330103.43417861 6.342753.44529668c1.057735.07513162 2.115664.15071825 3.173619.22675576l6.34672.46160262 6.33936.47222584c1.055502.07957857 2.110364.15959153 3.164419.24003476l6.313315.4877895 6.285946.4979179 6.250575.5078482c24.920885 2.05099 48.80077 4.3355593 69.33467 6.7967007 56.468226 6.7681391 109.250197 3.3439267 150.234178-1.2949465l3.69309-.4248121 3.626732-.4300055 3.559021-.4337001 3.489956-.4358957 3.419535-.4365924 3.347761-.4357903 4.884102-.6489024 3.1624-.4272271 6.093902-.8348103 9.895289-1.3666352 3.929362-.53585192 2.512363-.336871 1.947296-.2561342 1.472017-.18711022 1.504163-.18487411 2.315341-.27295202 1.582172-.17895093 1.612432-.17644847 2.474207-.25981414 1.685725-.1698594 1.714098-.16709058 2.623171-.2452779 2.68398-.23862 1.822206-.15525433 2.781289-.22695276 2.837249-.21960995 1.92169-.14220046 3.913412-.27396365 2.994216-.19604049 2.023303-.12605941 3.074346-.1819475 3.12-.17314925 3.163834-.16409416 3.205849-.15478224 2.159677-.09788802 3.271834-.13869159 3.308999-.12869474 2.225749-.08011585 2.24092-.07548256 3.388645-.10436994 2.276488-.06356638 3.439473-.08613893 3.467544-.07485788 3.493797-.06331998 2.342884-.03567654 3.533509-.04351938 3.554911-.03129657 3.574494-.01881691 1.195536-.00345466 3.580618.01459995 3.561641.02716522 2.362986.02496402 2.353205.03035833 3.510288.05548535 2.326393.04351117 3.467544.07485788 3.439473.08613893 2.276488.06356638 2.262665.06838992 3.3669.11146258 2.225749.08011585 3.308999.12869474 3.271834.13869159 2.159677.09788802 2.141811.10214082 3.178042.16101872 4.16983.22886611 3.074346.1819475 2.023303.12605941 2.994216.19604049 3.913412.27396365 2.873545.21457206 1.885394.14723835 2.781289.22695276 1.822206.15525433 2.68398.23862 2.623171.2452779 1.714098.16709058 2.517779.25580362 1.642153.17386992 1.612432.17644847 1.582172.17895093 2.315341.27295202 1.504163.18487411 1.472017.18711022 1.947296.2561342 3.800877.51160294 3.992842.54713318 10.037485 1.3864007 4.599712.6290316 3.1624.4272271 3.23756.4317765 4.994303.6529162 3.419535.4365924 3.489956.4358957 3.559021.4337001 3.626732.4300055 3.69309.4248121c40.983981 4.6388732 93.765952 8.0630856 150.234178 1.2949465 20.5339-2.4611414 44.413785-4.7457107 69.33467-6.7967007l6.250575-.5078482 6.285946-.4979179 6.313315-.4877895c1.054055-.08044323 2.108917-.16045619 3.164419-.24003476l6.33936-.47222584 6.34672-.46160262 6.346076-.45078148c1.057181-.07421749 2.114002-.14797585 3.170296-.22127096l6.330103-.43417861 6.309452-.42286262 6.280796-.41134868 6.244136-.39963679 6.199469-.38772697c1.02908-.06361767 2.05597-.12673086 3.08049-.18933544l6.11748-.36949109 6.0528-.35708641 5.98013-.34448379 5.89944-.33168323 5.81077-.31868473 5.71409-.30548829 5.60939-.2920939 5.4967-.27850158 5.37601-.26471131 5.24731-.2507231 5.11061-.23653695 4.9659-.22215286 4.81319-.20757083 4.65248-.19279086 4.48377-.17781294 4.30704-.16263708c.70267-.02583053 1.39765-.05102049 2.08476-.07556574l4.02696-.13950216 3.83023-.12383145 3.6255-.1079628 3.41277-.09189621 3.19203-.07563168 2.96329-.0591692c2.84625-.05087198 5.33738-.07675334 7.43738-.07675334v25z" fill="url(#b)"/></g><g filter="url(#c)" opacity=".3"><g fill="#b58f46" fill-rule="nonzero" transform="matrix(-1 0 0 1 863 0)"><path d="m5.5 21 2.551 13.761.0045694.002486-.0035694.005514 2.948 15.9020271-4.759-.0000271.00058569 4.329h-1l-.00058569-4.329-5.241.0000271zm-1.99765947 14.5619847-2.66671886 14.3875469 4.40537833-.0005316v-4.171l-1.52034226-1.5983843.4872707-.5122222 1.03307156 1.0856065v-1.139l-1.52034226-1.5988708.4872707-.5122222 1.03307156 1.085093.00058569-2.1982834h1l-.00058569 1.8722834.72334777-.759093.4872707.5122222-1.21061847 1.2718708v1.14l.72334777-.7596065.4872707.5122222-1.21061847 1.2713843v4.498l3.923206.0005316-2.62338549-14.1516323c-.51641857.8499534-1.11999999 1.3383558-1.81981723 1.443449-.81456941.1223259-1.54451347-.4575358-2.21866275-1.6793636zm1.99765947-10.7749686-1.785 9.6259839.04929822.1126591.06872971.1496819.0685828.1436722c.03425265.070338.06844566.1384318.10257221.2042957l.06816245.1287589c.5445584 1.0063537 1.07093859 1.444292 1.55120375 1.3721694.62434065-.0937587 1.20093586-.692389 1.71085053-1.8412997z"/><path d="m25.5 0 6.5 49.5188055-5.795-.0008055.0323124 7.479552-.8861814.002448-.032131-7.482-6.319.0008055zm-2.308 22.946-3.3949561 25.8604272 5.5189561-.0004272-.025-5.932-2.2016778-2.2579018.4930732-.5057495 1.7036046 1.7476513-.023-5.423-2.1736778-2.2303069.4930732-.5057495 1.6766046 1.7190564-.0216876-5.0431363.8861814-.002448.0785062 18.4335843 5.0007817.0004272-2.9908461-22.7880978c-1.6104896.5575091-3.2890735-.5007478-5.0156059-3.0650026zm2.308-17.58592505-2.174 16.55992505.028456-.017543c.0566951.091991.1131877.1821455.1694784.2704684l.1123129.1742052c.0186741.0286277.0373258.0570522.0559552.0852738l.1115089.1668957c.0185403.0274105.0370584.0546184.0555542.081624l.1107087.1596059c.0368142.0523934.0735399.1039787.1101772.1547573l.1096474.1499173c1.4407538 1.942822 2.7440446 2.6284259 3.9265733 2.147809z"/><path d="m47 25 8 28.5305261-7.367-.0005261.0001961 4.47h-1l-.0001961-4.47-7.633.0005261 4.48-15.9765261-.0345757-.0317075.0605757-.0632925zm-.091701 14.1473931c-.9390374 0-1.8770928-.3619513-2.8128276-1.0739521l-4.1344392 14.7419693 6.6719678-.0004103.0001961-5.9180155-2.5361609-2.4821554.5187391-.507693 2.0172257 1.9748639.0001961-2.5418744h1l-.0001961 5.4968744 1.3844217-1.3542848.5187391.507693-1.9031608 1.8625918v2.962l6.4057844.0004103-4.1800668-14.9050346c-.9570775.8194854-1.9417438 1.2370174-2.9504186 1.2370174zm.091701-11.4350511-2.6927114 9.6044911c.8979827.7468368 1.7644102 1.1125737 2.6010104 1.1125737.9023796 0 1.8114296-.425731 2.7319162-1.2979312z"/><path d="m67.5 24 2.551 13.761.0045694.002486-.0035694.005514 2.948 15.9020271-4.759-.0000271.0005857 4.329h-1l-.0005857-4.329-5.241.0000271zm-1.9976595 14.5619847-2.6667188 14.3875469 4.4053783-.0005316v-4.171l-1.5203423-1.5983843.4872707-.5122222 1.0330716 1.0856065v-1.139l-1.5203423-1.5988708.4872707-.5122222 1.0330716 1.085093.0005857-2.1982834h1l-.0005857 1.8722834.7233478-.759093.4872707.5122222-1.2106185 1.2718708v1.14l.7233478-.7596065.4872707.5122222-1.2106185 1.2713843v4.498l3.923206.0005316-2.6233855-14.1516323c-.5164186.8499534-1.12 1.3383558-1.8198172 1.443449-.8145694.1223259-1.5445135-.4575358-2.2186628-1.6793636zm1.9976595-10.7749686-1.785 9.6259839.0492982.1126591.0687297.1496819.0685828.1436722c.0342527.070338.0684457.1384318.1025722.2042957l.0681625.1287589c.5445584 1.0063537 1.0709386 1.444292 1.5512037 1.3721694.6243407-.0937587 1.2009359-.692389 1.7108506-1.8412997z"/><path d="m88.5 10 6.5 41.1799684-5.849-.0009684.0009589 6.821h-1l-.0009589-6.821-6.151.0009684zm-2.3316144 19.2422027-3.3498087 21.2198676 5.3324231-.0000703v-3.787l-2.5794923-2.6719746.4922045-.5096683 2.0872878 2.1616429.0009589-5.9614007h1l-.0009589 2.7754007 1.6112672-1.6677606.4922045.5096682-2.1034717 2.1770924v6.974l5.0302491.0000703-2.6926776-17.0592121c-1.9045152.2185199-3.6765322-1.1946096-5.3201859-4.1606555zm2.3316144-14.7737466-2.15 13.6135439.0445557.0886299c.2331538.4618054.4671762.8876919.7020521 1.2779495l.1084647.1775901c1.3624698 2.1978023 2.7535141 3.2008807 4.1701718 3.0656214z"/><path d="m116 24 8 28.5305261-7.367-.0005261.000196 4.47h-1l-.000196-4.47-7.633.0005261 4.48-15.9765261-.034576-.0317075.060576-.0632925zm-.091701 14.1473931c-.939037 0-1.877093-.3619513-2.812828-1.0739521l-4.134439 14.7419693 6.671968-.0004103.000196-5.9180155-2.536161-2.4821554.518739-.507693 2.017226 1.9748639.000196-2.5418744h1l-.000196 5.4968744 1.384422-1.3542848.518739.507693-1.903161 1.8625918v2.962l6.405784.0004103-4.180066-14.9050346c-.957078.8194854-1.941744 1.2370174-2.950419 1.2370174zm.091701-11.4350511-2.692711 9.6044911c.897982.7468368 1.76441 1.1125737 2.60101 1.1125737.90238 0 1.81143-.425731 2.731916-1.2979312z"/><path d="m143.5 6 6.5 41.1799684-5.849-.0009684.000959 6.821h-1l-.000959-6.821-6.151.0009684zm-2.331614 19.2422027-3.349809 21.2198676 5.332423-.0000703v-3.787l-2.579492-2.6719746.492204-.5096683 2.087288 2.1616429.000959-5.9614007h1l-.000959 2.7754007 1.611267-1.6677606.492205.5096682-2.103472 2.1770924v6.974l5.030249.0000703-2.692678-17.0592121c-1.904515.2185199-3.676532-1.1946096-5.320185-4.1606555zm2.331614-14.7737466-2.15 13.6135439.044556.0886299c.233153.4618054.467176.8876919.702052 1.2779495l.108465.1775901c1.362469 2.1978023 2.753514 3.2008807 4.170171 3.0656214z"/></g></g></g></svg>
