<svg xmlns="http://www.w3.org/2000/svg" width="739" height="114" viewBox="0 0 739 114" fill="none"><line x1="9.5" y1="44" x2="9.5" y2="17" stroke="url(#paint0_linear_1804_110)" stroke-width="3"></line><path d="M5.39909 12.6667L13.6008 12.6667C14.2262 12.6667 14.6062 11.978 14.2658 11.4476L10.1649 5.00341C10.0935 4.89059 9.99475 4.79766 9.87779 4.73327C9.76083 4.66887 9.62948 4.6351 9.49597 4.6351C9.36245 4.6351 9.2311 4.66887 9.11414 4.73327C8.99718 4.79766 8.89841 4.89059 8.82701 5.00341L4.73409 11.4476C4.65686 11.567 4.61329 11.705 4.60797 11.8471C4.60266 11.9892 4.6358 12.1302 4.70389 12.255C4.77199 12.3798 4.87252 12.484 4.99488 12.5565C5.11724 12.6289 5.25688 12.667 5.39909 12.6667Z" fill="url(#paint1_linear_1804_110)"></path><line x1="370.5" y1="112.996" x2="370.5" y2="43.9956" stroke="#373C3D"></line><line x1="11" y1="42.4958" x2="731" y2="42.4959" stroke="url(#paint2_linear_1804_110)" stroke-width="3"></line><line x1="729.5" y1="43" x2="729.5" y2="16" stroke="url(#paint3_linear_1804_110)" stroke-width="3"></line><path d="M725.399 12.6667L733.601 12.6667C734.226 12.6667 734.606 11.978 734.266 11.4476L730.165 5.00341C730.094 4.89059 729.995 4.79766 729.878 4.73327C729.761 4.66887 729.629 4.6351 729.496 4.6351C729.362 4.6351 729.231 4.66887 729.114 4.73327C728.997 4.79766 728.898 4.89059 728.827 5.00341L724.734 11.4476C724.657 11.567 724.613 11.705 724.608 11.8471C724.603 11.9892 724.636 12.1302 724.704 12.255C724.772 12.3798 724.873 12.484 724.995 12.5565C725.117 12.6289 725.257 12.667 725.399 12.6667Z" fill="url(#paint4_linear_1804_110)"></path><line x1="370.5" y1="44" x2="370.5" y2="96" stroke="url(#paint5_linear_1804_110)" stroke-width="3"></line><path d="M374.601 101.333L366.399 101.333C365.774 101.333 365.394 102.022 365.734 102.552L369.835 108.997C369.906 109.109 370.005 109.202 370.122 109.267C370.239 109.331 370.371 109.365 370.504 109.365C370.638 109.365 370.769 109.331 370.886 109.267C371.003 109.202 371.102 109.109 371.173 108.997L375.266 102.552C375.343 102.433 375.387 102.295 375.392 102.153C375.397 102.011 375.364 101.87 375.296 101.745C375.228 101.62 375.127 101.516 375.005 101.444C374.883 101.371 374.743 101.333 374.601 101.333Z" fill="url(#paint6_linear_1804_110)"></path><defs><linearGradient id="paint0_linear_1804_110" x1="9.00001" y1="17.5" x2="9" y2="41.5" gradientUnits="userSpaceOnUse"><stop stop-color="#FFE9A4" stop-opacity="0.12"></stop><stop offset="1" stop-color="#FFE9A4"></stop></linearGradient><linearGradient id="paint1_linear_1804_110" x1="4.60742" y1="8.65093" x2="14.3935" y2="8.65093" gradientUnits="userSpaceOnUse"><stop stop-color="#FFE9A4"></stop><stop offset="1" stop-color="#FDCE74"></stop></linearGradient><linearGradient id="paint2_linear_1804_110" x1="371" y1="43.9959" x2="371" y2="44.9959" gradientUnits="userSpaceOnUse"><stop stop-color="#FFE9A4"></stop><stop offset="1" stop-color="#FDCE74"></stop></linearGradient><linearGradient id="paint3_linear_1804_110" x1="729" y1="16.5" x2="729" y2="40.5" gradientUnits="userSpaceOnUse"><stop stop-color="#FFE9A4" stop-opacity="0.12"></stop><stop offset="1" stop-color="#FFE9A4"></stop></linearGradient><linearGradient id="paint4_linear_1804_110" x1="724.607" y1="8.65093" x2="734.394" y2="8.65093" gradientUnits="userSpaceOnUse"><stop stop-color="#FFE9A4"></stop><stop offset="1" stop-color="#FDCE74"></stop></linearGradient><linearGradient id="paint5_linear_1804_110" x1="369" y1="70" x2="368" y2="70" gradientUnits="userSpaceOnUse"><stop stop-color="#FFE9A4"></stop><stop offset="1" stop-color="#FDCE74"></stop></linearGradient><linearGradient id="paint6_linear_1804_110" x1="375.393" y1="105.349" x2="365.606" y2="105.349" gradientUnits="userSpaceOnUse"><stop stop-color="#FFE9A4"></stop><stop offset="1" stop-color="#FDCE74"></stop></linearGradient></defs></svg>