<svg xmlns="http://www.w3.org/2000/svg" width="65" height="67" viewBox="0 0 65 67" fill="none"><path id="logo" d="M0.928576 16.6739L0.796875 16.744V50.25L30.9402 66.9239L31.0722 67L61.2221 50.3261L61.3541 50.25V30.0093C63.5515 34.094 63.9346 37.7429 63.9412 37.7809L64.1981 40.43L64.5616 37.7936C64.6205 37.3318 64.6734 36.8512 64.7198 36.3266V36.3199C65.1154 31.2681 63.987 26.8924 61.3541 23.3069V16.744L31.2108 0.0695463L31.0722 0L0.928576 16.6739ZM1.33124 49.953V17.041L31.0722 0.588196L60.8199 17.041V22.6181C60.51 22.2323 60.1733 21.8465 59.8033 21.4608V17.6036L31.2108 1.78318L31.0722 1.71358L2.47949 17.5342L2.34749 17.6036V49.3903L5.64706 51.2171V51.2238H5.6536L21.3189 59.8865V59.8931H21.3261L24.2028 61.4796V61.4863H24.2093L27.7595 63.4465V63.4526H27.766L31.0722 65.28L34.385 63.4526H34.3915V63.4465L37.9417 61.4863V61.4796L40.8249 59.8931V59.8865L59.8033 49.3903V27.5184C60.1531 28.005 60.4898 28.5236 60.8134 29.0615C60.8199 29.0615 60.8199 29.0615 60.8199 29.0675V49.953L31.0722 66.4053L1.33124 49.953ZM2.88197 17.9007L31.0722 2.30153L59.2691 17.9007V20.9235C53.0921 14.9666 43.6428 13.6451 41.9932 13.4555C41.9403 13.1898 41.8481 12.9306 41.7095 12.6905C41.0433 11.584 39.3211 10.92 37.1035 10.92C31.5541 10.9139 30.9003 9.68071 30.8938 9.68071L30.8349 9.5037L30.6433 9.47834C28.6107 9.21271 26.9082 9.61128 25.5888 10.3636C10.9721 13.6831 5.13893 24.7613 2.88197 34.4104V17.9007ZM26.7898 21.4608C22.9685 19.2222 22.5265 15.9724 23.3057 13.8727C24.0374 11.894 26.1165 10.0792 29.218 10.0031C27.5881 10.7685 25.0011 12.6336 25.311 16.75C25.4895 19.1461 27.0403 20.4936 28.4126 21.6817C29.7588 22.8517 30.8938 23.8442 30.7486 25.5708C30.3001 24.1225 28.967 22.7382 26.7898 21.4608ZM30.5047 28.2326C30.544 28.1632 30.6106 28.043 30.676 27.8849C32.4118 24.3501 30.5969 22.7696 28.8284 21.2392C27.4822 20.0692 26.0903 18.8618 25.9315 16.712C25.5686 11.8179 29.5083 10.4268 30.4845 10.1612C30.9336 10.6545 32.3922 11.5145 37.1035 11.5145C39.0963 11.5206 40.6138 12.0709 41.1616 12.9876C41.5376 13.6137 41.4787 14.404 40.9969 15.359C40.5412 15.2262 39.5388 15.0427 37.9083 15.2896C37.7828 14.8912 37.4134 14.0061 36.5556 13.4809V13.4622L36.4176 13.3923C36.0084 13.1837 35.5521 13.0763 35.0643 13.0828C34.8472 13.0828 34.6354 13.1016 34.4243 13.1205C34.2137 13.1457 34.0025 13.1837 33.7979 13.228L33.5998 13.2786H33.5926C33.1971 13.3861 32.8407 13.5123 32.5237 13.6264C31.8771 13.8667 31.4089 14.0436 30.9467 13.8474L29.7921 13.3545L30.5773 14.3025C30.5969 14.3285 32.3458 16.4083 35.031 16.4083C35.4801 16.4083 35.9554 16.3516 36.4569 16.2127C38.7465 15.5927 40.1129 15.7635 40.6869 15.9024L40.766 16.0479C40.7988 16.1113 41.5507 17.5276 40.0397 18.4953C39.7167 18.7036 39.2682 18.8304 38.753 18.9819C36.6681 19.5826 33.8175 20.4176 34.1804 27.7647C34.1405 28.8399 33.7449 29.8391 33.0977 30.6607C32.4511 31.4764 31.5541 32.1151 30.5047 32.4441V28.2326ZM2.88197 49.0987V37.0535C4.61069 27.3222 9.77806 15.0994 24.4604 11.1731C23.6418 11.8939 23.0541 12.7666 22.718 13.6705C22.5396 14.1383 22.4277 14.6569 22.3819 15.2136C8.0024 21.1384 6.28689 35.9155 6.27386 36.067C6.15519 36.9273 6.11551 37.819 6.06911 38.704L6.04288 39.2606C5.99023 40.2972 5.95038 41.6755 5.89761 43.4148C5.83825 45.3811 5.75919 47.8158 5.64706 50.6225L2.88197 49.0987ZM34.1667 13.7719C34.2398 13.7592 34.3124 13.7465 34.3915 13.7339C34.4445 13.7278 34.4974 13.7212 34.5498 13.7151C34.7217 13.6958 34.893 13.6831 35.0709 13.6831C35.2957 13.6898 35.5063 13.7085 35.7109 13.7652C35.7377 13.7719 35.7704 13.7779 35.7966 13.7906C35.8364 13.8033 35.8763 13.816 35.9156 13.8286C35.9292 13.8347 35.9358 13.8413 35.9489 13.8474C35.8959 14.2651 35.52 14.5935 35.0643 14.5935C34.5825 14.5935 34.1934 14.2271 34.1667 13.7719ZM31.6593 14.5114C32.0091 14.4613 32.3654 14.3285 32.7485 14.1891C32.9924 14.1003 33.2696 14.0061 33.5599 13.9234C33.6587 14.6382 34.2922 15.1948 35.0643 15.1948C35.7377 15.1948 36.2987 14.7704 36.5027 14.1891C36.9518 14.5809 37.1892 15.1121 37.2885 15.4031C36.9714 15.4665 36.6353 15.542 36.285 15.6374C35.8382 15.7587 35.4123 15.8106 35.0108 15.8106C33.4879 15.8106 32.3173 15.062 31.6593 14.5114ZM61.3476 25.6843C60.8723 24.9762 60.3381 24.2873 59.7706 23.6486C53.7126 16.8067 43.8938 15.58 41.6702 15.3904C41.8814 14.9226 41.9998 14.48 42.026 14.0689C43.9331 14.2965 53.4157 15.7128 59.3018 21.8212C59.889 22.4346 60.3839 23.0226 60.833 23.6359C62.542 25.9627 63.5973 28.6437 63.9935 31.6412C63.4195 29.466 62.542 27.4737 61.3476 25.6843ZM22.3617 15.8776C22.395 17.1104 22.8102 18.4573 23.7935 19.7094C18.607 21.6757 14.76 25.1977 12.3707 30.1868C10.108 30.5466 8.68233 31.3182 7.77142 32.3554C9.23656 27.6826 13.0111 19.8543 22.3617 15.8776ZM61.3607 28.7578C60.8657 27.9416 60.3381 27.1707 59.7837 26.4686C55.587 21.0937 49.4171 18.1856 41.4394 17.7992C41.7226 17.1164 41.6107 16.4276 41.4192 15.9724C43.0818 16.0926 53.1718 17.1231 59.2953 24.0344C59.8497 24.6538 60.3577 25.3179 60.8199 26.0134C62.5093 28.5296 63.5587 31.4764 63.9542 34.7962C63.4986 33.1583 62.7074 31.0024 61.3607 28.7578ZM51.5949 39.2473C51.5681 38.9443 51.5485 38.6406 51.5223 38.3436C51.2183 34.2842 50.928 30.4585 42.9438 29.9846C42.5673 29.9592 42.211 29.9339 41.8612 29.9085C41.3068 26.3551 39.3735 23.0606 36.4373 20.784C37.1957 20.0632 38.1064 19.7975 38.938 19.5579C39.4728 19.3991 39.9874 19.2536 40.3895 18.9886C40.6869 18.805 40.9112 18.5961 41.0891 18.3812C49.0144 18.6909 55.1313 21.5242 59.2691 26.8103V49.0987L52.2879 52.9558C52.0957 48.4733 51.7662 41.1828 51.5949 39.2473ZM23.8138 20.3481V27.4991C23.6686 27.7774 22.3486 29.763 14.7005 29.9846C14.133 29.9967 13.6048 30.0347 13.1099 30.0914C15.4132 25.4948 19.0091 22.2257 23.8138 20.3481ZM24.4401 20.4363C24.7899 20.784 25.1992 21.1257 25.6542 21.4481V43.2693H24.4401V20.4363ZM36.028 21.2392C38.8125 23.389 40.6602 26.4939 41.2211 29.8451C35.1768 29.2571 34.8139 27.7967 34.8067 27.784V27.7587C34.8139 27.6953 34.8139 27.6259 34.8139 27.5625H34.8002C34.6551 24.1859 35.1964 22.3271 36.028 21.2392ZM26.2818 21.8592C26.3407 21.8972 26.4002 21.9347 26.4662 21.9727C26.8618 22.207 27.2253 22.4406 27.5685 22.6809V43.2693H26.2818V21.8592ZM28.1883 23.1614C29.3102 24.0845 30.0033 25.0462 30.221 26.0007C30.3727 26.7028 30.2537 27.2528 30.1216 27.5939C30.0556 27.7267 29.9967 27.8595 29.9176 27.9923L29.8777 28.0557V43.2693H28.1883V23.1614ZM21.5961 29.5861C22.718 29.2004 23.4045 28.7766 23.8138 28.4222V32.9434C22.7573 32.0457 21.9923 30.8757 21.5961 29.5861ZM30.5047 33.0702C32.6688 32.4628 34.2922 30.7175 34.7086 28.6311C34.9852 28.8713 35.4206 29.143 36.0875 29.4086C35.3748 32.0076 33.2298 33.9932 30.5047 34.5873V33.0702ZM30.5047 35.2007C33.5004 34.5939 35.8763 32.4441 36.6811 29.6175C37.11 29.7564 37.6252 29.8892 38.2254 30.016C37.2356 33.4873 34.1935 36.143 30.5047 36.7625V35.2007ZM19.4451 30.1301C20.0322 30.022 20.5468 29.8958 21.0025 29.7691C21.4843 31.3248 22.467 32.7158 23.8138 33.721V35.5804C21.6889 34.3597 20.1244 32.4061 19.4451 30.1301ZM30.5047 37.3698C34.4974 36.7431 37.79 33.8791 38.8393 30.1301C39.3009 30.2122 39.8024 30.2876 40.3633 30.3577C39.1819 34.8469 35.2886 38.2041 30.5047 38.8489V37.3698ZM17.2941 30.4205C17.8485 30.3698 18.3559 30.307 18.8247 30.2309C19.57 32.7979 21.3719 34.9797 23.8138 36.2692V37.9137C22.1178 37.1609 20.6527 36.0416 19.5111 34.6694V34.6507H19.4915C18.4684 33.4179 17.7159 31.9823 17.2941 30.4205ZM37.5324 36.1938C39.195 34.6567 40.4163 32.6783 40.9909 30.4271C41.0962 30.4398 41.2015 30.4458 41.3133 30.4585C41.3734 30.9704 41.4061 31.489 41.4061 32.0076V43.2693H37.5324V36.1938ZM6.52442 43.4335C6.57724 41.6948 6.61662 40.3226 6.66956 39.2854L6.69609 38.7354C6.73565 37.825 6.78187 36.9526 6.89388 36.1243C6.89388 36.1117 6.91387 35.9722 6.94712 35.7386C6.94712 35.7319 6.95367 35.7259 6.95367 35.7192C6.95367 35.7066 6.96021 35.6879 6.96021 35.6752C7.45507 32.8486 8.98571 30.7428 14.7201 30.5786C15.4197 30.5599 16.0598 30.5279 16.6671 30.4772C17.0829 32.0958 17.8485 33.5887 18.8842 34.8783V48.9412H15.268C14.7201 46.0639 14.2716 43.6297 14.2651 43.5856L14.0271 42.2701H13.7571L13.6577 43.4715H6.51787C6.52448 43.4588 6.52442 43.4462 6.52442 43.4335ZM40.7333 43.87H42.0331V32.0076C42.0331 31.5084 41.9998 31.0085 41.9474 30.5152C42.2574 30.5406 42.5738 30.5599 42.9105 30.5786C50.3409 31.0212 50.5985 34.4358 50.9018 38.3877C50.9215 38.6913 50.9477 38.995 50.9744 39.298C51.0339 40.0382 51.1261 41.606 51.2249 43.4715H43.9926V43.623L43.8807 42.3076H43.5309L42.6928 48.9412H40.7333V43.87ZM19.5111 35.5991C20.1048 36.2318 20.771 36.8071 21.4974 37.313V48.9412H19.5111V35.5991ZM24.4401 43.87H30.5047V39.4562C32.9199 39.1465 35.1238 38.1794 36.9054 36.7371V43.87H38.0142V48.9412H24.4401V43.87ZM22.1244 37.7109C22.6585 38.0399 23.226 38.3249 23.8138 38.5712V48.9412H22.1244V37.7109ZM38.6412 43.87H40.1058V48.9412H38.6412V43.87ZM44.0318 44.0662H51.2516C51.2713 44.4453 51.2909 44.8311 51.3105 45.2295H44.1252L44.0318 44.0662ZM6.50473 44.0662H13.6048L13.506 45.2295H6.46523C6.47849 44.8244 6.49164 44.4393 6.50473 44.0662ZM44.1776 45.8236H51.3373C51.3575 46.1592 51.3706 46.5003 51.3902 46.8481H44.2632L44.1776 45.8236ZM6.44524 45.8236H13.4596L13.374 46.8481H6.41228C6.42555 46.4943 6.43882 46.1526 6.44524 45.8236ZM13.3282 54.872L14.0735 45.9818C14.6083 48.8337 15.525 53.6519 16.1389 56.4278L13.3282 54.872ZM43.2466 49.5418H43.2734V49.3269L43.6166 46.6265L44.5071 57.2627L42.0991 58.5903L43.2466 49.5418ZM50.3076 47.4361H51.4164C51.5223 49.6741 51.6145 51.8498 51.6805 53.2915L50.8424 53.7527L50.3076 47.4361ZM44.309 47.4361H49.6812L50.2481 54.0878L45.1079 56.9271L44.309 47.4361ZM7.87058 51.8559L8.12827 47.4361H13.321L12.7273 54.543L7.87058 51.8559ZM6.25405 50.9648C6.30658 49.7127 6.35262 48.5367 6.3923 47.4361H7.50117L7.26359 51.5208L6.25405 50.9648ZM15.387 49.5418H42.6137L42.462 50.7813H15.6243C15.5452 50.3635 15.459 49.953 15.387 49.5418ZM16.8717 56.8323C16.5612 55.4854 16.146 53.4557 15.7427 51.382H42.3829L41.4192 58.9694L40.8249 59.2918H21.3189V59.2984L16.8717 56.8323ZM22.395 59.8931H39.7494L37.9417 60.8916V60.8856H24.2028V60.8916L22.395 59.8931ZM25.2783 61.4863H36.8661L34.3915 62.8579V62.8519H27.7595V62.8579L25.2783 61.4863ZM28.835 63.4526H33.3089L31.0722 64.692L28.835 63.4526Z" fill="url(#paint0_linear_640_2672)"></path><defs><linearGradient id="paint0_linear_640_2672" x1="32.9561" y1="-30.8039" x2="32.9561" y2="97.8038" gradientUnits="userSpaceOnUse"><stop stop-color="#FFE9A4"></stop><stop offset="1" stop-color="white"></stop></linearGradient></defs></svg>