<svg height="200" viewBox="0 0 400 200" width="400" xmlns="http://www.w3.org/2000/svg"><g fill="#50e3c2" fill-opacity=".1" fill-rule="evenodd"><g fill-rule="nonzero"><path d="m239 36c-1.656854 0-3 1.3431458-3 3s1.343146 3 3 3 3-1.3431458 3-3-1.343146-3-3-3zm0 1.2c.994113 0 1.8.8058875 1.8 1.8s-.805887 1.8-1.8 1.8-1.8-.8058875-1.8-1.8.805887-1.8 1.8-1.8z"/><path d="m218 96c-1.656854 0-3 1.3431458-3 3 0 1.656854 1.343146 3 3 3s3-1.343146 3-3c0-1.6568542-1.343146-3-3-3zm0 1.2c.994113 0 1.8.8058875 1.8 1.8s-.805887 1.8-1.8 1.8-1.8-.8058875-1.8-1.8.805887-1.8 1.8-1.8z"/><path d="m11.5 75c-1.3807119 0-2.5 1.1192881-2.5 2.5s1.1192881 2.5 2.5 2.5 2.5-1.1192881 2.5-2.5-1.1192881-2.5-2.5-2.5zm0 1.25c.6903559 0 1.25.5596441 1.25 1.25s-.5596441 1.25-1.25 1.25-1.25-.5596441-1.25-1.25.5596441-1.25 1.25-1.25z"/></g><circle cx="60.5" cy="110.5" r="2.5"/><circle cx="176.5" cy="58.5" r="2.5"/><circle cx="298.5" cy="56.5" r="2.5"/><circle cx="357" cy="82" r="3"/><circle cx="119" cy="96" r="3"/><circle cx="69.5" cy="42.5" r="2.5"/><path d="m360 0c-2.209139 0-4 1.790861-4 4s1.790861 4 4 4 4-1.790861 4-4-1.790861-4-4-4zm0 1.33333333c1.472759 0 2.666667 1.19390734 2.666667 2.66666667s-1.193908 2.66666667-2.666667 2.66666667-2.666667-1.19390734-2.666667-2.66666667 1.193908-2.66666667 2.666667-2.66666667z" fill-rule="nonzero"/><circle cx="258" cy="178" r="3"/><g fill-rule="nonzero"><path d="m85 15c-2.209139 0-4 1.790861-4 4s1.790861 4 4 4 4-1.790861 4-4-1.790861-4-4-4zm0 1.3333333c1.4727593 0 2.6666667 1.1939074 2.6666667 2.6666667s-1.1939074 2.6666667-2.6666667 2.6666667-2.6666667-1.1939074-2.6666667-2.6666667 1.1939074-2.6666667 2.6666667-2.6666667z"/><path d="m308.5 117c-1.380712 0-2.5 1.119288-2.5 2.5s1.119288 2.5 2.5 2.5 2.5-1.119288 2.5-2.5-1.119288-2.5-2.5-2.5zm0 1.25c.690356 0 1.25.559644 1.25 1.25s-.559644 1.25-1.25 1.25-1.25-.559644-1.25-1.25.559644-1.25 1.25-1.25z"/><path d="m153 194c-1.656854 0-3 1.343146-3 3s1.343146 3 3 3 3-1.343146 3-3-1.343146-3-3-3zm0 1.333333c.920475 0 1.666667.746192 1.666667 1.666667s-.746192 1.666667-1.666667 1.666667-1.666667-.746192-1.666667-1.666667.746192-1.666667 1.666667-1.666667z"/><path d="m137.5 39c-1.380712 0-2.5 1.1192881-2.5 2.5s1.119288 2.5 2.5 2.5 2.5-1.1192881 2.5-2.5-1.119288-2.5-2.5-2.5zm0 1.25c.690356 0 1.25.5596441 1.25 1.25s-.559644 1.25-1.25 1.25-1.25-.5596441-1.25-1.25.559644-1.25 1.25-1.25z"/><path d="m13 135c-1.6568542 0-3 1.343146-3 3s1.3431458 3 3 3 3-1.343146 3-3-1.3431458-3-3-3zm0 1.2c.9941125 0 1.8.805887 1.8 1.8s-.8058875 1.8-1.8 1.8-1.8-.805887-1.8-1.8.8058875-1.8 1.8-1.8z"/><path d="m97 146c-1.6568542 0-3 1.343146-3 3s1.3431458 3 3 3 3-1.343146 3-3-1.3431458-3-3-3zm0 1.333333c.9204746 0 1.6666667.746192 1.6666667 1.666667s-.7461921 1.666667-1.6666667 1.666667-1.6666667-.746192-1.6666667-1.666667.7461921-1.666667 1.6666667-1.666667z"/></g><circle cx="41" cy="176" r="3"/><circle cx="351.5" cy="151.5" r="2.5"/><circle cx="283.5" cy="15.5" r="2.5"/><circle cx="23" cy="19" r="3"/><circle cx="171.5" cy="132.5" r="2.5"/></g></svg>
